<!DOCTYPE svg PUBLIC "-//W3C//DTD SVG 20010904//EN" "http://www.w3.org/TR/2001/REC-SVG-20010904/DTD/svg10.dtd">
<svg version="1.0" xmlns="http://www.w3.org/2000/svg" width="450px" height="450px" viewBox="0 0 4500 4500" preserveAspectRatio="xMidYMid meet">
<g id="layer101" fill="#050505" stroke="none">
 <path d="M0 2250 l0 -2250 2250 0 2250 0 0 2250 0 2250 -2250 0 -2250 0 0 -2250z"/>
 </g>
<g id="layer102" fill="#cfcfce" stroke="none">
 <path d="M2037 4000 c-27 -5 -79 -18 -115 -28 -37 -11 -92 -23 -122 -27 -82 -11 -213 -58 -309 -113 -47 -27 -115 -63 -151 -80 -96 -48 -178 -114 -340 -274 -118 -116 -154 -158 -190 -223 -24 -44 -59 -100 -78 -125 -48 -64 -107 -192 -132 -285 -12 -44 -32 -107 -45 -140 -42 -107 -55 -212 -57 -455 -2 -208 0 -231 21 -305 12 -44 29 -115 37 -158 17 -95 61 -212 110 -293 20 -32 49 -87 64 -121 46 -100 96 -168 238 -319 140 -150 198 -199 297 -255 33 -18 80 -48 105 -67 65 -49 213 -117 305 -141 44 -11 112 -31 151 -45 105 -36 195 -46 429 -49 193 -2 217 0 295 21 47 13 120 30 163 38 93 17 212 61 289 108 31 18 94 52 141 75 106 51 194 121 367 292 109 107 145 150 180 214 24 44 59 100 78 125 50 67 109 194 137 295 13 50 34 117 46 150 38 108 49 196 51 428 3 215 2 225 -24 317 -15 52 -32 127 -39 165 -14 84 -57 200 -103 275 -19 30 -45 81 -59 112 -41 91 -114 197 -191 275 -39 39 -95 99 -124 132 -60 69 -140 132 -227 181 -33 18 -88 53 -122 77 -74 52 -196 107 -284 127 -35 9 -92 27 -126 41 -34 14 -102 31 -150 39 -105 17 -448 28 -516 16z m129 -32 c-65 -16 -93 -19 -155 -12 l-76 8 60 12 c33 6 103 12 155 12 l95 1 -79 -21z m349 7 c33 -3 87 -14 120 -24 l60 -19 -78 -1 c-61 -1 -95 5 -153 25 -80 29 -93 38 -41 30 17 -3 59 -8 92 -11z m-106 -16 c78 -22 111 -39 75 -39 -12 0 -55 -9 -97 -20 l-77 -19 -65 24 c-36 14 -74 25 -85 25 -42 0 -17 19 43 33 86 21 119 20 206 -4z m-384 -41 c-22 -11 -60 -33 -85 -49 -45 -28 -47 -28 -145 -21 l-100 8 80 41 c79 41 81 42 185 42 l105 0 -40 -21z m-240 2 c-3 -5 -10 -10 -15 -10 -6 0 -33 -14 -61 -31 -45 -28 -185 -65 -198 -53 -7 7 126 63 196 83 81 23 86 24 78 11z m431 -21 c35 -11 64 -24 64 -28 0 -5 -14 -14 -30 -21 -17 -7 -55 -27 -84 -45 l-53 -32 -96 31 c-53 17 -97 34 -97 37 0 4 37 25 83 48 90 46 96 46 213 10z m495 12 c38 -5 79 -20 132 -51 42 -24 77 -46 77 -49 0 -3 -43 -4 -96 -2 -96 3 -98 4 -161 47 -35 24 -68 44 -74 44 -5 0 -9 5 -9 10 0 11 48 12 131 1z m-131 -21 c21 -11 60 -34 86 -52 l47 -32 -64 -12 c-35 -7 -80 -18 -101 -25 -35 -11 -39 -10 -113 40 -42 28 -82 51 -88 51 -28 0 14 21 68 34 83 20 120 19 165 -4z m358 -37 c59 -23 174 -84 169 -89 -1 -1 -34 5 -72 14 -47 11 -88 29 -120 53 -28 20 -59 41 -70 48 -18 11 -18 11 5 5 14 -3 54 -17 88 -31z m-555 -29 c34 -20 72 -44 85 -54 l23 -19 -43 -20 c-24 -10 -66 -33 -94 -50 l-51 -30 -49 35 c-27 20 -67 45 -88 56 -38 20 -39 21 -20 35 22 18 155 83 167 83 5 0 36 -16 70 -36z m-576 10 l60 -7 -74 -70 -74 -71 -52 4 c-29 2 -73 4 -99 4 -27 0 -48 4 -48 7 0 4 30 34 66 68 62 57 74 62 145 69 9 1 43 -1 76 -4z m-249 -73 c-69 -65 -77 -69 -143 -81 -38 -7 -81 -17 -95 -22 -20 -8 -17 -1 20 37 66 67 106 92 190 114 41 11 81 20 88 20 8 1 -19 -30 -60 -68z m462 28 c75 -24 79 -27 61 -38 -7 -5 -42 -37 -77 -71 l-64 -63 -57 21 c-32 12 -78 26 -103 33 l-45 11 74 70 c85 79 84 79 211 37z m784 -71 c36 -40 66 -76 66 -80 0 -4 -13 -8 -28 -8 -16 0 -62 -9 -103 -20 -41 -10 -76 -16 -80 -12 -3 4 -36 39 -73 79 l-67 71 83 20 c129 32 127 32 202 -50z m218 2 c38 -39 68 -74 68 -78 0 -4 -46 -5 -102 -4 -96 4 -103 5 -122 30 -11 15 -40 48 -65 75 l-44 47 99 0 99 0 67 -70z m118 9 c47 -21 92 -59 142 -121 l29 -38 -34 15 c-19 8 -63 22 -98 31 -60 16 -68 21 -126 90 l-63 73 53 -15 c28 -9 72 -25 97 -35z m-1820 -34 c-36 -36 -80 -67 -130 -90 l-75 -35 45 42 c47 43 188 138 205 138 5 0 -15 -25 -45 -55z m867 18 c33 -21 71 -46 84 -55 l23 -18 -24 -17 c-14 -9 -50 -41 -81 -70 l-56 -53 -68 45 c-38 25 -77 47 -87 51 -10 3 -18 8 -18 12 1 19 133 142 153 142 7 0 41 -17 74 -37z m393 -49 l72 -77 -63 -31 c-35 -18 -78 -40 -95 -50 l-32 -19 -68 73 c-38 40 -70 76 -72 80 -2 7 163 99 179 100 4 0 39 -34 79 -76z m-893 10 l23 -6 -24 -29 c-14 -16 -39 -55 -57 -87 l-32 -59 -101 5 c-56 2 -103 6 -105 8 -5 5 58 111 86 144 24 29 28 30 106 30 45 0 92 -3 104 -6z m1638 -50 c33 -23 83 -66 110 -94 l50 -53 -45 27 c-25 15 -58 34 -75 43 -16 8 -52 43 -80 76 -54 66 -51 66 40 1z m-1869 24 c-9 -13 -29 -45 -45 -73 -17 -27 -34 -56 -38 -63 -8 -12 -193 -56 -201 -47 -4 4 57 105 86 142 18 23 132 61 186 62 28 1 28 0 12 -21z m396 -15 l77 -24 -49 -75 c-27 -41 -52 -83 -55 -93 -5 -17 -11 -16 -86 11 -44 15 -89 28 -100 28 -10 0 -19 6 -19 13 0 14 51 103 86 150 21 29 22 29 146 -10z m511 -60 c95 -98 94 -92 30 -144 -30 -24 -65 -56 -77 -71 l-21 -28 -75 82 -74 81 74 69 c40 37 77 68 80 68 4 0 32 -26 63 -57z m691 48 c40 -5 62 -13 70 -26 18 -30 85 -159 83 -161 -1 -1 -50 1 -108 4 l-106 4 -11 32 c-7 18 -27 57 -46 88 -22 37 -30 59 -22 62 16 6 72 5 140 -3z m-137 -53 c30 -51 66 -130 61 -132 -6 -3 -174 -38 -189 -39 -11 -1 -31 27 -63 87 -25 49 -44 92 -41 94 7 8 148 40 175 41 20 1 32 -10 57 -51z m-1698 11 c-12 -17 -34 -53 -49 -80 -23 -43 -37 -54 -113 -93 l-87 -44 19 37 c40 77 96 136 167 174 38 20 73 37 77 37 5 0 -2 -14 -14 -31z m2012 5 c49 -15 91 -35 104 -50 22 -24 90 -152 83 -159 -1 -2 -34 7 -73 21 -38 13 -80 24 -92 24 -18 0 -29 13 -52 65 -17 36 -39 79 -51 95 -12 17 -17 30 -11 30 5 0 47 -12 92 -26z m-1141 -73 l32 -27 -40 -57 c-21 -31 -45 -70 -52 -87 -7 -16 -16 -30 -21 -30 -5 0 -30 15 -56 34 -27 18 -64 41 -83 51 -19 10 -36 19 -38 20 -5 5 16 43 65 118 l45 67 58 -31 c31 -17 72 -43 90 -58z m630 -44 l41 -81 -78 -39 c-43 -21 -82 -43 -87 -48 -17 -16 -34 -10 -40 14 -3 12 -24 53 -47 91 -33 54 -38 70 -28 77 8 5 49 27 93 49 61 31 82 38 92 29 8 -6 32 -48 54 -92z m721 17 c38 -25 80 -60 93 -77 21 -29 76 -130 76 -141 0 -2 -36 18 -81 44 -79 48 -82 51 -123 135 -24 47 -41 85 -39 85 3 0 36 -21 74 -46z m-1855 -7 c1 -1 -11 -40 -27 -87 -16 -47 -29 -93 -29 -104 0 -12 -5 -16 -16 -12 -9 3 -58 6 -109 6 l-93 0 9 38 c26 98 51 161 67 166 15 4 193 -2 198 -7z m-591 -39 c-14 -24 -33 -56 -42 -73 -8 -16 -45 -55 -81 -85 l-66 -54 44 64 c38 56 156 190 167 190 2 0 -8 -19 -22 -42z m346 -5 c-10 -27 -24 -71 -30 -98 l-12 -50 -104 -25 c-58 -14 -105 -22 -105 -18 0 18 51 165 62 181 13 16 140 55 185 56 l23 1 -19 -47z m365 16 c110 -34 105 -25 73 -121 -16 -46 -29 -91 -29 -102 0 -13 -5 -17 -17 -13 -10 4 -56 18 -102 32 -47 14 -86 26 -87 28 -3 4 26 111 43 155 18 49 24 50 119 21z m485 -26 c24 -27 55 -60 68 -74 l23 -27 -40 -58 c-22 -33 -47 -73 -56 -91 l-16 -32 -74 77 -75 77 31 55 c35 64 76 120 86 120 4 0 28 -21 53 -47z m329 -68 l39 -79 -42 -35 c-23 -19 -59 -52 -80 -74 l-37 -38 -19 44 c-10 24 -32 65 -49 92 l-30 48 21 30 c12 16 46 49 76 73 64 53 63 54 121 -61z m-1395 48 c-17 -41 -45 -136 -45 -154 0 -14 -18 -27 -65 -48 -36 -17 -79 -39 -95 -51 -33 -24 -34 -22 -19 35 28 110 49 143 108 178 97 57 128 68 116 40z m1880 -39 c9 -31 19 -77 22 -103 l5 -47 -83 -18 c-46 -10 -94 -20 -106 -23 -20 -5 -23 -1 -23 23 0 26 -15 91 -34 151 -8 27 10 36 109 58 94 21 92 22 110 -41z m191 50 c16 -4 26 -20 38 -63 23 -81 32 -156 18 -147 -6 3 -53 7 -105 7 l-95 0 -11 64 c-6 35 -18 82 -26 104 l-14 41 87 0 c48 0 97 -3 108 -6z m150 -35 c34 -11 68 -25 77 -32 16 -11 57 -148 57 -188 0 -16 -5 -15 -67 6 -38 12 -82 26 -100 29 -28 6 -33 13 -39 44 -3 20 -14 67 -23 104 l-18 68 26 -6 c14 -3 53 -15 87 -25z m-1449 -16 c33 -21 70 -46 83 -55 l23 -17 -21 -58 c-12 -32 -26 -77 -32 -100 l-11 -42 -73 47 c-40 26 -81 52 -91 57 -16 10 -16 15 5 85 29 99 38 120 48 120 5 0 36 -17 69 -37z m1783 -108 c15 -22 39 -62 54 -90 l28 -50 -61 60 c-43 42 -71 82 -96 135 l-35 75 41 -45 c23 -25 54 -63 69 -85z m-900 67 c10 -41 30 -139 30 -153 0 -4 -32 -24 -71 -44 -40 -20 -81 -42 -93 -50 -20 -14 -21 -12 -44 91 -13 58 -22 107 -20 109 14 14 157 85 170 85 12 0 21 -13 28 -38z m771 -42 c74 -49 77 -53 92 -108 9 -31 19 -77 23 -101 l7 -43 -39 26 c-21 14 -60 37 -86 51 -40 21 -48 30 -54 62 -3 21 -12 63 -20 94 -16 65 -16 69 -7 69 4 0 41 -23 84 -50z m-2646 -31 c-9 -24 -20 -64 -26 -88 -6 -28 -19 -51 -37 -65 -15 -11 -48 -40 -74 -65 l-48 -43 16 53 c31 105 55 148 116 205 33 30 62 53 64 51 2 -2 -3 -24 -11 -48z m1421 -1 c16 -29 36 -71 45 -92 l16 -39 -54 -80 c-29 -44 -53 -85 -53 -91 0 -6 -14 18 -30 53 -17 35 -40 77 -51 93 -18 25 -20 33 -10 56 15 35 94 152 102 152 3 0 19 -24 35 -52z m-232 -47 c68 -73 67 -65 32 -172 l-31 -96 -70 74 c-42 43 -69 80 -67 91 1 9 14 54 29 100 29 94 22 94 107 3z m-621 63 l47 -7 -3 -108 c-2 -86 -5 -108 -15 -104 -8 3 -57 5 -109 5 l-95 0 4 98 c2 53 7 103 11 110 9 13 85 16 160 6z m-186 -108 l-2 -105 -62 -11 c-34 -5 -80 -17 -102 -25 l-41 -14 0 97 c0 53 4 103 8 109 11 18 116 48 179 52 22 1 22 -1 20 -103z m1297 27 c29 -126 30 -121 -56 -202 -69 -65 -78 -70 -78 -49 0 13 -9 59 -20 101 -15 55 -18 83 -11 96 13 24 134 130 142 125 4 -2 14 -34 23 -71z m-935 42 c44 -14 82 -29 85 -34 3 -4 3 -53 -1 -108 l-6 -99 -98 30 -99 31 0 80 c0 92 7 125 26 125 7 0 49 -11 93 -25z m-587 -127 l-4 -107 -33 -11 c-18 -6 -58 -26 -89 -45 -69 -41 -71 -39 -62 83 6 73 11 90 29 104 21 17 160 89 162 85 1 -1 0 -50 -3 -109z m2178 93 c30 -8 35 -34 25 -139 l-7 -72 -106 4 c-59 3 -106 7 -104 10 1 3 2 51 2 106 l0 100 83 -1 c45 -1 93 -4 107 -8z m559 -185 c10 -33 21 -78 25 -99 l7 -39 -68 72 c-67 72 -68 73 -89 169 l-22 96 64 -69 c51 -54 68 -81 83 -130z m-759 125 c0 -32 -3 -78 -6 -102 l-6 -44 -82 -17 c-44 -9 -92 -20 -105 -24 -23 -7 -24 -5 -18 26 4 18 7 65 7 105 l0 73 48 16 c64 20 81 23 125 25 l37 1 0 -59z m-1175 -9 c51 -35 69 -53 68 -67 -1 -11 -3 -57 -4 -102 -1 -46 -4 -83 -6 -83 -3 0 -23 13 -46 29 -23 15 -61 38 -84 50 l-43 21 0 99 c0 54 3 100 6 103 10 10 38 -3 109 -50z m1535 32 c93 -31 96 -37 85 -165 -6 -69 -9 -79 -24 -73 -38 16 -163 54 -177 54 -11 0 -14 6 -10 16 3 9 6 56 6 105 0 105 -3 104 120 63z m-592 -116 l-3 -102 -30 -15 c-16 -9 -56 -30 -88 -48 -32 -18 -60 -33 -62 -33 -7 0 6 205 13 212 11 11 155 87 165 88 4 0 6 -46 5 -102z m-2088 -3 c-12 -46 -34 -94 -64 -138 -25 -38 -46 -66 -46 -63 0 33 116 284 126 273 1 -1 -6 -33 -16 -72z m2839 48 c25 -14 63 -39 84 -55 l37 -30 0 -81 c0 -45 -3 -92 -6 -104 -6 -21 -7 -21 -52 11 -26 18 -67 44 -90 57 -42 22 -44 26 -38 59 3 19 6 65 6 103 0 37 3 67 7 67 3 0 27 -12 52 -27z m-1355 -28 c15 -24 34 -63 44 -87 l18 -43 -32 -95 c-32 -93 -33 -94 -44 -65 -6 16 -27 55 -47 88 -26 44 -33 64 -29 85 14 58 50 162 57 162 4 0 19 -20 33 -45z m222 -74 l17 -81 -32 -45 c-17 -24 -43 -63 -56 -86 l-23 -42 -7 39 c-4 21 -13 61 -21 88 -21 74 -18 84 38 170 59 90 55 92 84 -43z m-1564 7 c-3 -96 -5 -102 -30 -122 -15 -11 -48 -40 -74 -64 l-47 -43 -3 33 c-2 18 -1 64 2 102 l5 68 68 64 c37 35 71 64 75 64 4 0 6 -46 4 -102z m1224 -132 c-3 -32 -6 -78 -6 -102 l0 -44 -70 73 -69 72 -1 65 c0 36 3 83 7 105 l6 39 69 -74 69 -75 -5 -59z m-612 178 c41 -6 46 -9 46 -33 0 -15 9 -60 20 -100 12 -40 19 -74 18 -75 -2 -1 -49 0 -105 2 -99 4 -102 4 -112 30 -15 36 -40 170 -33 177 7 7 109 6 166 -1z m-170 -86 c10 -46 20 -93 23 -105 5 -20 1 -23 -24 -23 -15 0 -62 -9 -102 -20 -40 -12 -75 -19 -76 -18 -5 7 -34 127 -40 165 l-6 41 53 15 c75 22 89 25 123 26 30 1 31 0 49 -81z m1301 -93 c-4 -21 -28 -51 -78 -96 l-73 -66 4 101 3 101 72 70 72 70 3 -75 c2 -41 1 -88 -3 -105z m-950 137 l79 -27 12 -70 c7 -39 17 -83 23 -99 7 -16 10 -30 9 -31 -3 -3 -148 40 -184 55 -20 8 -33 46 -60 178 -6 30 20 29 121 -6z m2238 -151 c43 -132 42 -142 -4 -66 -26 43 -46 89 -51 120 -4 28 -10 61 -13 75 -11 51 43 -51 68 -129z m-2819 85 c4 -29 14 -75 22 -101 8 -27 13 -49 12 -50 -9 -6 -181 -95 -184 -95 -7 0 -32 99 -39 152 l-7 53 74 42 c68 38 93 50 109 52 4 1 10 -23 13 -53z m2693 -11 c61 -68 70 -88 68 -145 0 -19 -2 -59 -3 -88 l-2 -54 -73 78 -73 77 7 56 c3 31 5 75 3 99 -2 23 1 42 6 42 5 0 35 -29 67 -65z m-774 -66 l-28 -82 -85 -17 c-47 -10 -93 -21 -102 -25 -22 -9 -23 -14 7 73 14 41 25 82 25 92 0 26 18 36 95 54 104 23 110 23 113 4 2 -9 -9 -54 -25 -99z m235 114 c21 -5 23 -10 17 -40 -3 -19 -16 -63 -28 -96 l-22 -62 -108 0 c-59 0 -107 1 -107 2 0 1 8 24 19 50 10 26 24 72 31 101 l12 52 81 0 c45 0 93 -3 105 -7z m185 -45 c66 -24 66 -26 36 -124 -34 -110 -31 -107 -91 -83 -28 11 -73 25 -100 30 -30 7 -48 16 -45 22 11 32 46 145 51 168 6 26 7 27 48 17 24 -5 69 -18 101 -30z m-1587 -4 c89 -53 101 -68 113 -137 6 -34 15 -77 20 -94 11 -38 20 -40 -94 29 -68 42 -70 45 -86 103 -21 80 -29 135 -20 135 4 0 34 -16 67 -36z m-1134 -85 c-4 -111 4 -90 -100 -245 -11 -16 -12 -4 -7 75 5 73 12 105 32 144 21 42 73 127 77 127 0 0 -1 -46 -2 -101z m2105 64 c-19 -68 -48 -160 -54 -170 -5 -6 -34 -23 -66 -37 -32 -14 -72 -35 -89 -48 -29 -20 -31 -21 -23 -2 4 10 18 54 29 96 12 43 26 82 32 88 13 13 155 89 167 90 5 0 6 -8 4 -17z m-493 -107 l16 -75 -29 -88 c-17 -48 -32 -81 -34 -73 -19 62 -37 144 -37 164 0 14 12 62 26 108 30 94 32 93 58 -36z m-142 -3 c35 -75 36 -81 31 -166 l-6 -89 -26 49 c-15 27 -35 60 -44 73 -13 19 -17 47 -17 128 0 124 7 124 62 5z m1404 61 c32 -19 69 -45 81 -56 l21 -20 -18 -66 c-10 -37 -25 -81 -32 -99 l-13 -31 -71 46 c-39 26 -79 52 -89 57 -17 10 -16 15 9 89 14 43 26 87 26 97 0 27 18 24 86 -17z m-2696 -12 c0 -15 9 -59 20 -97 18 -66 18 -71 2 -83 -9 -7 -43 -38 -75 -69 -31 -31 -60 -53 -63 -50 -8 8 -44 156 -44 182 0 23 137 158 151 149 5 -3 9 -17 9 -32z m1518 -229 l-53 -78 2 92 c2 97 5 105 62 193 l36 55 3 -92 3 -91 -53 -79z m-336 114 c22 -28 34 -57 43 -110 7 -40 17 -81 21 -92 4 -11 -22 12 -59 50 -69 73 -88 112 -103 212 l-6 48 37 -35 c20 -19 50 -52 67 -73z m-687 38 c14 -30 36 -73 50 -95 l25 -40 -22 0 c-13 0 -57 -9 -98 -20 -41 -11 -80 -20 -86 -20 -6 0 -32 40 -58 90 l-47 90 23 10 c25 11 141 38 171 39 13 1 25 -16 42 -54z m245 -40 l47 -91 -101 3 c-93 2 -102 4 -118 26 -18 25 -78 141 -78 152 0 3 46 4 102 3 l102 -3 46 -90z m87 56 c40 -12 77 -27 83 -34 9 -11 90 -167 90 -173 0 -1 -24 6 -52 16 -29 10 -70 21 -91 25 -24 5 -44 17 -56 34 -20 28 -81 146 -81 156 0 7 3 6 107 -24z m882 -42 c-11 -39 -26 -83 -33 -98 -17 -32 -153 -154 -142 -126 5 11 17 52 27 90 17 64 24 75 89 138 38 37 72 67 74 67 3 0 -4 -32 -15 -71z m1325 -16 c34 -68 36 -76 36 -175 l0 -103 -41 75 c-23 41 -44 80 -49 85 -10 13 0 209 11 198 4 -4 24 -40 43 -80z m-2703 -117 c17 -18 9 -32 -24 -44 -18 -6 -59 -28 -92 -47 -67 -41 -59 -46 -116 69 -29 60 -36 83 -28 93 6 7 48 31 92 53 l81 41 39 -78 c21 -43 43 -82 48 -87z m2619 1 c0 -30 -50 -189 -58 -185 -4 2 -38 35 -75 75 l-68 71 25 74 c13 40 28 87 31 103 l7 30 69 -73 c40 -43 69 -83 69 -95z m-870 146 c0 -8 -73 -130 -92 -154 -8 -9 -43 -21 -81 -28 -37 -6 -79 -16 -94 -22 -14 -5 -27 -8 -29 -7 -1 2 17 35 42 73 24 39 44 75 44 82 0 12 68 36 151 52 60 12 59 12 59 4z m219 -2 c11 -7 5 -24 -33 -85 -26 -41 -52 -79 -59 -83 -11 -7 -198 -5 -205 2 -2 2 9 23 26 47 16 24 39 62 51 86 l21 42 93 0 c50 0 98 -4 106 -9z m146 -32 c88 -28 90 -30 69 -70 -22 -43 -85 -139 -92 -139 -2 0 -49 14 -103 31 l-98 31 38 57 c21 31 46 71 55 89 19 36 21 36 131 1z m-1440 -18 c80 -47 102 -71 143 -153 21 -43 37 -78 35 -78 -3 0 -23 13 -46 29 -23 15 -56 36 -74 45 -29 14 -96 112 -116 169 -9 23 0 22 58 -12z m-1144 -148 c10 -32 9 -38 -20 -79 -18 -24 -43 -62 -56 -86 l-24 -42 -11 28 c-6 16 -16 59 -22 97 -14 78 -7 99 60 197 l36 54 13 -67 c7 -37 17 -83 24 -102z m-191 -88 c-16 -44 -29 -73 -29 -65 -2 41 20 188 36 243 l18 62 2 -80 c2 -67 -2 -93 -27 -160z m2162 188 c-41 -79 -84 -121 -164 -161 -73 -36 -92 -40 -67 -15 5 5 27 39 47 73 33 56 45 67 117 106 43 24 81 41 83 39 2 -1 -5 -20 -16 -42z m741 16 c12 -7 52 -32 90 -56 l67 -45 -31 -58 c-17 -31 -43 -72 -58 -90 l-27 -33 -60 41 c-32 22 -71 46 -86 53 -16 7 -28 15 -28 18 0 3 15 27 33 53 18 25 41 64 52 87 20 46 19 45 48 30z m-1195 -179 c0 -25 -3 -58 -7 -75 -6 -26 -9 -21 -25 47 -14 60 -17 93 -10 145 l7 68 18 -70 c9 -38 17 -90 17 -115z m-1248 3 c13 -19 11 -23 -21 -49 -19 -15 -53 -48 -77 -73 -50 -52 -48 -53 -107 67 l-36 73 23 27 c12 15 47 48 77 75 l54 47 37 -72 c20 -40 42 -83 50 -95z m1317 80 c-3 -58 -12 -105 -26 -138 l-22 -50 5 85 c3 74 30 190 44 190 2 0 2 -39 -1 -87z m-164 -5 c30 -62 62 -176 52 -186 -1 -2 -16 21 -33 50 -26 45 -45 102 -66 201 -8 33 12 7 47 -65z m252 -4 c-20 -68 -44 -117 -79 -159 l-24 -30 13 57 c12 51 93 203 103 193 2 -2 -4 -30 -13 -61z m-891 -21 l73 -77 -81 -18 c-45 -9 -92 -20 -105 -24 -20 -6 -33 3 -87 61 -35 37 -64 73 -64 80 0 11 83 36 160 48 14 3 26 5 28 6 2 0 36 -34 76 -76z m147 69 c8 -4 45 -38 81 -77 l66 -70 -102 3 -101 4 -58 56 c-93 91 -93 92 10 91 48 0 95 -3 104 -7z m208 -57 c33 -17 153 -152 126 -141 -42 18 -109 36 -130 36 -14 0 -48 27 -93 74 -40 41 -72 76 -72 79 0 8 137 -31 169 -48z m230 -50 c21 -27 48 -72 60 -100 l22 -50 -46 45 c-42 41 -102 133 -121 185 -6 18 -4 17 20 -5 15 -13 44 -47 65 -75z m1796 -11 l37 -75 -15 -62 c-9 -34 -22 -80 -30 -101 l-13 -39 -51 94 -50 94 23 55 c12 30 25 72 29 93 10 49 22 39 70 -59z m-1411 29 c-52 -82 -69 -102 -113 -135 l-39 -29 29 54 c25 46 136 167 154 167 3 0 -11 -26 -31 -57z m562 34 c9 -9 -56 -77 -106 -112 -34 -23 -41 -24 -131 -18 l-96 6 71 69 71 69 92 -4 c51 -1 95 -6 99 -10z m943 -197 l0 -95 -20 75 c-16 61 -19 90 -13 155 l7 80 13 -60 c7 -33 13 -103 13 -155z m-2730 165 c13 -19 43 -52 66 -74 l44 -40 -54 -25 c-29 -13 -70 -36 -91 -50 l-37 -25 -29 20 c-15 11 -49 46 -74 76 -37 46 -43 58 -32 69 21 20 148 84 166 84 9 0 28 -16 41 -35z m1530 -1 c-71 -74 -107 -96 -181 -110 -39 -7 -79 -16 -89 -19 -10 -4 11 23 48 60 59 59 72 67 137 85 39 10 82 19 95 19 24 1 24 0 -10 -35z m426 -6 l65 -21 -37 -41 c-21 -23 -56 -56 -78 -73 l-40 -32 -97 33 -96 32 72 67 c81 76 85 77 211 35z m469 -38 c36 -39 66 -76 66 -83 0 -13 -54 -106 -92 -159 l-17 -23 -17 25 c-10 14 -42 50 -71 81 l-53 56 50 74 c27 41 50 80 50 87 0 24 18 11 84 -58z m-1641 -23 c26 -19 62 -53 79 -77 l32 -43 -50 27 c-47 27 -164 132 -164 148 0 11 44 -12 103 -55z m-1434 -100 c8 -22 4 -47 -22 -124 l-31 -96 -13 49 c-29 115 -23 206 19 300 11 24 13 22 25 -38 7 -34 17 -75 22 -91z m165 90 c12 -29 35 -71 49 -93 l25 -41 -35 -49 c-19 -27 -43 -66 -54 -87 -11 -21 -24 -35 -30 -32 -21 14 -90 168 -85 190 5 20 96 165 103 165 2 0 14 -24 27 -53z m1800 32 c-43 -48 -116 -101 -171 -124 l-58 -25 55 52 c73 69 226 154 174 97z m820 -49 c42 -27 76 -54 76 -59 0 -11 -141 -143 -149 -139 -3 2 -45 27 -94 57 l-87 54 37 31 c21 17 54 47 73 68 19 20 42 37 51 37 9 1 51 -21 93 -49z m-2244 -113 c18 -12 13 -18 -62 -87 l-81 -74 -69 73 c-37 40 -68 76 -68 80 0 4 34 40 75 80 l75 73 55 -66 c31 -36 64 -71 75 -79z m484 110 c17 -13 55 -38 85 -55 l54 -31 -39 -6 c-21 -4 -67 -15 -100 -25 -69 -19 -63 -21 -168 48 -78 52 -79 51 39 77 84 19 94 18 129 -8z m202 10 c11 -6 47 -30 80 -52 l59 -40 -92 2 c-98 1 -146 19 -218 78 l-30 24 90 0 c54 1 98 -4 111 -12z m169 -44 c33 -13 76 -37 95 -53 l35 -29 -58 14 c-51 12 -197 87 -197 101 0 9 61 -7 125 -33z m620 1 c-52 -40 -144 -77 -220 -88 l-40 -6 49 33 c29 18 86 41 135 54 103 26 101 26 76 7z m250 6 c-4 -6 -42 -28 -84 -50 -78 -39 -78 -39 -169 -33 l-92 6 73 42 c72 43 73 43 175 44 68 1 101 -2 97 -9z m-1321 -110 c6 0 -18 -14 -53 -30 -35 -17 -77 -40 -93 -51 -25 -18 -33 -20 -56 -10 -38 17 -152 92 -152 100 0 9 88 60 139 80 l44 18 80 -54 c44 -29 85 -53 91 -53z m1474 78 c40 -12 71 -26 69 -32 -2 -6 -41 -30 -88 -54 l-84 -43 -45 19 c-25 10 -66 24 -92 32 l-48 13 83 48 c90 53 84 52 205 17z m800 -97 l36 -74 -24 -44 c-13 -25 -38 -65 -56 -90 l-32 -45 -37 74 c-21 40 -43 81 -50 92 -12 16 -9 26 25 75 20 31 45 71 55 90 17 34 18 34 32 15 9 -10 31 -52 51 -93z m136 30 c9 -39 16 -83 16 -98 0 -32 -33 -152 -49 -180 -9 -16 -10 -15 -11 7 0 14 -9 58 -20 97 l-20 72 25 65 c14 37 25 75 25 86 0 44 19 16 34 -49z m-402 -11 c35 -39 64 -75 66 -80 4 -10 -110 -125 -137 -140 -14 -7 -27 4 -66 52 -26 33 -59 67 -72 75 l-23 16 77 73 c43 40 81 73 85 74 4 0 35 -32 70 -70z m-1694 13 c45 -15 82 -30 82 -33 0 -3 -38 -14 -85 -24 -82 -18 -88 -18 -148 -2 -34 10 -75 23 -92 30 -30 13 -29 13 55 34 47 11 90 21 95 22 6 0 47 -12 93 -27z m207 -1 l50 -21 -71 -1 c-62 0 -186 28 -204 47 -14 15 180 -7 225 -25z m1122 -9 c34 -21 72 -45 85 -55 23 -16 23 -16 3 -32 -11 -8 -52 -31 -92 -51 l-72 -36 -74 50 c-41 28 -80 51 -86 51 -26 0 -7 18 47 44 32 15 69 36 82 47 34 25 37 25 107 -18z m-539 2 c1 -1 -29 -9 -67 -18 -70 -17 -146 -20 -191 -8 -21 6 -16 9 30 19 84 18 100 20 165 14 33 -2 61 -6 63 -7z m-1992 -67 c20 -40 42 -81 49 -91 11 -16 10 -25 -2 -55 -9 -21 -24 -66 -33 -101 l-17 -64 -37 65 c-62 111 -63 117 -31 224 15 52 29 94 31 94 1 0 19 -33 40 -72z m272 -19 l62 -66 -50 -74 c-27 -41 -50 -80 -50 -86 0 -7 -5 -13 -12 -13 -15 0 -126 118 -134 142 -6 21 4 42 59 125 32 48 44 60 52 50 6 -6 39 -42 73 -78z m300 42 c31 -21 71 -46 89 -55 l32 -16 -77 -74 -77 -74 -56 30 c-31 16 -72 43 -90 59 l-34 29 73 70 c41 38 76 70 78 70 2 0 30 -17 62 -39z m1572 16 c41 -12 75 -26 75 -32 0 -5 -39 -18 -87 -28 l-87 -18 -87 30 -87 30 44 10 c24 6 58 15 74 20 46 14 74 12 155 -12z m-1115 -32 l70 -23 -38 -16 c-20 -9 -60 -30 -87 -47 -55 -34 -63 -34 -178 4 -34 11 -61 25 -59 31 2 6 41 30 86 53 72 36 86 40 109 31 15 -6 59 -21 97 -33z m400 16 c27 -6 21 -8 -45 -25 -60 -15 -90 -17 -145 -11 l-70 8 70 18 c72 18 138 21 190 10z m-1551 -226 l-7 -80 -13 60 c-7 33 -13 103 -13 155 l0 95 20 -75 c16 -61 19 -90 13 -155z m2041 190 l70 -24 -95 3 c-70 2 -107 9 -140 24 l-45 21 70 0 c48 0 92 -7 140 -24z m-455 1 c0 -3 -24 -18 -52 -34 -47 -27 -207 -77 -216 -68 -4 5 93 59 134 75 17 7 53 16 80 20 27 5 50 9 52 10 1 0 2 -1 2 -3z m867 -31 c32 -19 69 -43 82 -53 l23 -19 -58 -16 c-33 -9 -80 -19 -105 -22 -42 -6 -50 -4 -90 27 -25 18 -61 42 -82 53 l-37 20 82 21 c114 29 119 29 185 -11z m-1082 15 l60 0 -79 -45 c-79 -45 -79 -45 -178 -45 -65 0 -97 4 -93 10 4 6 41 28 83 50 60 31 85 39 112 35 19 -3 62 -5 95 -5z m648 -69 c37 -24 67 -44 67 -46 0 -7 -106 27 -155 50 -27 13 -63 34 -80 48 l-30 26 65 -18 c36 -9 95 -37 133 -60z m853 -20 c53 -64 54 -63 -61 -121 l-79 -40 -30 38 c-16 20 -49 56 -72 79 l-43 42 62 29 c34 17 76 39 92 50 30 19 30 19 58 -2 16 -12 49 -45 73 -75z m-1306 33 c-42 -42 -138 -104 -185 -119 -41 -13 103 109 160 136 33 15 62 28 65 28 2 1 -16 -20 -40 -45z m1584 -45 l46 -91 -26 -31 c-14 -18 -49 -51 -77 -74 l-51 -42 -36 72 c-20 40 -42 82 -50 94 -14 22 -12 25 25 55 22 18 56 50 75 70 19 21 38 38 41 38 4 0 27 -41 53 -91z m-1196 -23 c30 -28 58 -60 64 -70 9 -17 6 -16 -28 5 -72 43 -117 79 -151 118 -18 22 -33 42 -33 44 0 15 101 -52 148 -97z m208 94 c6 0 43 -21 84 -47 86 -55 79 -63 -47 -54 -54 4 -87 12 -100 23 -10 9 -41 31 -69 50 l-51 33 86 -2 c47 -1 91 -3 97 -3z m-1225 -37 l86 -28 -75 -71 c-84 -81 -72 -79 -209 -32 l-62 21 31 36 c45 51 121 112 133 107 5 -3 49 -17 96 -33z m2413 -43 c9 -38 16 -81 16 -95 0 -30 -30 -92 -73 -153 l-31 -43 -13 63 c-6 35 -17 79 -24 99 -11 34 -9 39 29 95 22 32 46 71 53 86 6 15 15 25 20 23 4 -3 15 -36 23 -75z m-1750 23 c-27 -47 -131 -163 -146 -163 -12 0 19 57 58 109 27 35 98 99 112 101 2 0 -9 -21 -24 -47z m314 -120 c37 -71 40 -83 11 -57 -48 43 -101 116 -124 171 l-25 58 52 -55 c29 -31 68 -83 86 -117z m-274 92 c-17 -63 -95 -206 -102 -186 -7 21 48 160 81 205 18 24 33 42 34 42 1 -1 -5 -29 -13 -61z m144 3 c29 -51 62 -156 62 -194 -1 -26 -44 46 -69 111 -17 45 -34 135 -26 135 2 0 17 -24 33 -52z m-1243 -3 c38 -25 77 -47 87 -51 24 -7 23 -14 -10 -60 -16 -21 -39 -59 -52 -84 -14 -25 -25 -46 -26 -48 -4 -6 -68 30 -126 71 l-57 39 23 47 c23 44 82 131 90 131 1 0 34 -20 71 -45z m848 -20 c-59 -59 -73 -68 -137 -85 -39 -11 -82 -20 -95 -20 l-25 0 30 31 c58 63 125 109 157 110 18 0 52 6 77 13 25 8 48 14 52 15 3 0 -23 -28 -59 -64z m273 -135 l-24 -75 -1 71 c-1 50 6 93 22 140 l22 69 3 -65 c2 -49 -4 -85 -22 -140z m86 65 c1 -27 0 -72 -1 -100 l-3 -50 -13 42 c-20 63 -28 147 -20 200 l7 48 14 -45 c8 -25 15 -67 16 -95z m1692 68 c-3 -32 -15 -101 -27 -153 l-22 -95 -3 79 c-2 61 2 92 17 130 11 28 22 61 26 74 11 37 14 25 9 -35z m-1349 7 c15 0 46 -25 95 -76 39 -42 70 -78 67 -80 -2 -2 -46 9 -97 26 -67 22 -98 38 -114 58 -11 15 -38 46 -59 69 l-38 41 61 -19 c34 -10 72 -19 85 -19z m-1885 21 c0 -4 29 -38 65 -74 l64 -67 -33 -100 -33 -101 -66 71 c-41 42 -67 79 -67 92 0 34 49 188 60 188 6 0 10 -4 10 -9z m992 -1 l48 0 -73 -70 -72 -69 -71 -1 c-39 0 -86 3 -103 6 l-32 7 28 30 c15 16 50 47 78 69 47 38 52 40 100 34 27 -3 71 -6 97 -6z m1444 -57 c35 -36 64 -72 64 -78 0 -12 -86 -38 -160 -49 -33 -5 -39 -2 -108 74 -71 78 -73 80 -45 81 15 0 57 8 93 18 36 10 71 19 79 20 7 0 42 -29 77 -66z m-2536 -118 c4 -5 5 -55 1 -110 l-7 -100 -42 82 c-41 81 -42 84 -42 185 l0 103 41 -75 c23 -41 45 -79 49 -85z m1342 69 c-46 -74 -54 -82 -128 -121 -43 -23 -80 -40 -82 -38 -5 5 33 76 65 119 20 28 53 52 108 81 44 22 81 40 83 39 1 -1 -19 -37 -46 -80z m973 -7 l70 -72 -75 -3 c-116 -5 -127 0 -201 81 l-66 73 101 -4 101 -3 70 -72z m-415 10 c47 -29 60 -44 98 -115 28 -53 39 -82 30 -82 -7 0 -44 22 -82 48 -63 43 -74 55 -111 129 -46 92 -51 90 65 20z m974 -38 c36 -71 44 -94 35 -105 -6 -8 -48 -32 -92 -54 l-81 -41 -41 80 c-23 44 -47 86 -54 94 -9 12 1 21 61 50 40 19 82 42 93 51 11 8 23 16 26 16 4 0 27 -41 53 -91z m-1444 11 c-11 -30 -19 -65 -20 -78 0 -33 -139 -177 -155 -160 -2 2 8 39 22 83 23 74 30 85 97 147 39 36 72 66 73 65 1 -1 -7 -27 -17 -57z m-808 30 c29 -10 72 -24 96 -30 l42 -11 -38 -57 c-22 -31 -47 -72 -56 -89 -15 -29 -20 -32 -49 -26 -42 8 -150 43 -160 53 -13 12 84 180 104 180 4 0 31 -9 61 -20z m1252 -165 c8 -27 18 -70 21 -95 l6 -45 -68 72 c-66 70 -69 73 -80 145 -6 40 -15 82 -19 93 -4 10 22 -12 59 -50 50 -53 70 -83 81 -120z m-361 78 c-2 -49 -3 -93 -3 -99 0 -6 -21 -43 -47 -83 -55 -88 -65 -81 -56 38 5 72 10 87 38 124 18 23 40 57 49 75 9 17 18 32 19 32 1 0 1 -39 0 -87z m-325 55 c-44 -67 -78 -126 -78 -136 0 -16 -195 -71 -208 -58 -5 6 50 101 81 140 20 25 40 33 118 52 52 12 96 22 98 23 2 0 -3 -9 -11 -21z m562 -230 c0 -65 -4 -97 -10 -93 -6 4 -28 42 -50 84 -39 78 -39 78 -33 169 l6 91 43 -76 c44 -76 44 -77 44 -175z m1360 215 c5 -21 15 -67 21 -103 l12 -64 -73 -68 c-39 -38 -76 -65 -81 -62 -5 3 -9 18 -9 34 0 15 -9 58 -21 95 l-21 68 53 46 c29 25 62 56 73 69 27 30 33 28 46 -15z m-1499 -62 c20 -78 20 -86 5 -145 -8 -34 -21 -76 -29 -95 l-14 -33 -12 44 c-32 120 -33 138 -4 229 16 48 29 86 31 84 1 -1 12 -39 23 -84z m-710 59 l89 0 -34 -47 c-18 -27 -43 -67 -55 -90 l-21 -43 -100 0 c-56 0 -102 4 -105 10 -4 6 8 34 25 63 53 87 81 119 97 113 8 -3 55 -6 104 -6z m1124 -9 c28 -10 69 -22 92 -26 30 -5 49 -15 62 -33 27 -39 83 -153 78 -159 -6 -5 -75 13 -143 38 -45 17 -54 25 -69 62 -9 23 -30 63 -46 90 -16 26 -28 47 -26 47 1 0 25 -8 52 -19z m-1620 -96 c17 -10 16 -15 -9 -87 -14 -42 -26 -85 -26 -97 0 -11 -4 -22 -8 -25 -7 -4 -128 69 -174 104 -9 7 13 100 38 167 l16 41 73 -46 c40 -26 80 -52 90 -57z m2269 6 c43 -82 45 -91 29 -99 -20 -11 -153 -42 -177 -42 -8 0 -29 28 -46 63 -18 34 -41 77 -52 95 l-20 32 29 1 c15 0 57 9 93 19 36 10 72 18 81 19 10 1 32 -31 63 -88z m592 2 c-6 -73 -13 -99 -42 -153 -19 -36 -42 -75 -52 -87 -16 -22 -17 -19 -14 78 4 101 4 101 48 164 24 34 44 68 44 74 0 6 5 11 11 11 9 0 10 -25 5 -87z m-854 14 c20 -26 78 -141 78 -156 0 -10 -184 -6 -202 5 -5 3 -18 27 -30 52 -12 26 -32 64 -45 84 -13 21 -23 39 -23 41 0 2 46 2 103 -1 89 -4 104 -7 119 -25z m-2256 -230 l-10 -101 -62 68 c-58 63 -63 72 -68 125 -3 31 -4 67 -1 81 2 14 4 37 4 52 1 26 6 23 74 -48 l72 -76 -9 -101z m1120 221 c-8 -18 -20 -59 -27 -92 -12 -55 -16 -61 -64 -91 -50 -33 -125 -68 -131 -62 -5 5 15 85 36 139 19 51 23 54 102 94 46 23 86 42 90 43 4 0 1 -14 -6 -31z m629 2 c3 -5 38 -29 76 -52 39 -23 75 -51 79 -64 13 -32 40 -168 35 -172 -4 -5 -126 66 -156 90 -8 7 -23 49 -31 93 -9 44 -20 88 -23 98 -7 18 9 24 20 7z m1039 -69 c8 -27 17 -73 21 -102 l7 -54 -54 -32 c-53 -32 -129 -67 -132 -61 -1 2 -9 39 -18 83 -10 44 -20 89 -23 101 -6 18 1 24 42 42 26 12 66 33 88 46 22 14 43 26 47 26 4 0 14 -22 22 -49z m-2320 -21 c13 0 16 -5 11 -17 -3 -10 -17 -56 -31 -102 -13 -47 -26 -86 -27 -88 -5 -4 -75 15 -139 39 -67 24 -67 25 -37 124 34 110 25 105 121 73 46 -16 91 -29 102 -29z m768 -42 l-4 -103 -46 -48 c-26 -27 -60 -58 -75 -69 l-29 -21 4 101 3 101 75 70 c41 38 75 70 75 71 1 0 -1 -46 -3 -102z m-1420 0 c20 -28 62 -187 52 -197 -6 -7 -60 118 -83 193 -24 78 -27 117 -6 68 8 -18 25 -47 37 -64z m1937 -139 c-1 -41 -4 -87 -8 -103 l-6 -30 -68 75 -69 74 6 65 c3 36 6 81 6 101 l0 37 70 -72 70 -73 -1 -74z m-834 165 c-8 -21 -22 -64 -30 -95 -13 -45 -21 -59 -43 -68 -37 -15 -165 -41 -171 -35 -6 6 22 119 42 167 14 32 19 35 69 41 30 4 74 13 99 20 24 8 45 13 46 12 2 -2 -4 -20 -12 -42z m474 -187 c-7 -17 -31 -58 -53 -91 l-40 -60 -17 56 c-9 31 -20 77 -23 102 -7 43 -4 51 38 115 25 37 49 76 53 86 4 13 14 -12 31 -79 20 -85 22 -103 11 -129z m162 91 c33 -51 33 -52 -3 -171 -12 -37 -26 -66 -32 -64 -6 2 -30 41 -54 88 l-43 84 24 60 c14 33 28 76 32 95 l7 34 20 -39 c11 -22 33 -61 49 -87z m-895 92 l51 0 -31 -100 -31 -100 -90 0 c-116 0 -122 4 -108 67 7 26 21 70 32 97 l21 49 53 -7 c28 -3 75 -6 103 -6z m1285 -1 c11 -5 52 -18 92 -28 84 -21 88 -27 110 -143 15 -77 14 -78 -7 -78 -11 0 -57 13 -100 28 l-79 27 -18 85 c-9 47 -20 93 -24 103 -8 20 -2 21 26 6z m1039 -84 l0 -95 -42 -46 c-23 -25 -58 -58 -77 -74 l-36 -28 3 106 c4 101 5 107 30 126 15 11 47 40 72 63 25 23 46 43 48 43 1 0 2 -43 2 -95z m-411 57 c5 -10 17 -55 26 -101 20 -97 23 -93 -77 -116 -114 -26 -111 -27 -132 68 -10 45 -20 91 -23 103 -4 19 1 22 49 27 30 4 72 13 94 21 51 19 52 19 63 -2z m-2417 -82 l45 -23 -5 -101 c-2 -56 -6 -103 -8 -105 -5 -5 -111 58 -144 86 -29 24 -30 28 -30 106 0 45 3 92 6 104 6 22 7 22 49 -10 23 -18 63 -44 87 -57z m2114 50 l73 0 16 -54 c9 -30 20 -77 24 -105 l8 -51 -62 0 c-34 0 -82 3 -106 6 l-44 6 -17 82 c-9 44 -20 92 -24 105 -7 23 -5 24 26 18 18 -4 66 -7 106 -7z m808 -27 c-11 -47 -70 -178 -98 -219 -21 -29 -26 -33 -20 -14 4 14 12 46 18 72 9 36 90 185 104 187 1 1 0 -11 -4 -26z m-2011 -85 c-5 -90 -8 -105 -27 -120 -19 -16 -140 -78 -150 -78 -12 0 -16 71 -9 135 l8 70 73 36 c40 20 78 41 85 48 22 22 25 9 20 -91z m835 -7 l42 -21 0 -100 c0 -57 -4 -102 -10 -105 -11 -7 -151 75 -166 97 -5 7 -8 59 -6 115 l3 102 47 -33 c26 -19 66 -43 90 -55z m-1887 -140 c8 -42 18 -86 22 -97 4 -10 -24 13 -61 52 -66 69 -69 75 -90 161 -12 49 -22 92 -22 96 0 4 30 -25 68 -64 64 -68 68 -75 83 -148z m2805 80 c-4 -53 -12 -101 -19 -108 -14 -13 -168 -95 -172 -91 -1 2 0 50 2 108 l5 105 53 23 c29 13 68 34 86 47 19 12 38 20 43 17 5 -3 6 -47 2 -101z m-2518 68 c29 -10 69 -21 88 -25 25 -5 34 -11 30 -21 -3 -8 -6 -57 -6 -108 l0 -94 -68 19 c-91 25 -125 39 -134 53 -9 15 -10 84 -1 155 5 44 9 52 22 46 9 -4 40 -15 69 -25z m978 -158 c6 -20 -3 -33 -61 -87 -37 -35 -73 -64 -80 -64 -12 0 -27 47 -46 143 l-9 49 77 72 77 73 18 -81 c9 -45 20 -92 24 -105z m454 3 c0 -18 -46 -172 -55 -182 -4 -4 -91 84 -119 120 l-25 33 32 96 32 97 67 -72 c38 -40 67 -80 68 -92z m-864 134 c-3 -13 -6 -60 -6 -104 0 -80 -1 -82 -27 -93 -37 -15 -171 -40 -178 -33 -7 7 -6 109 1 166 6 41 9 46 33 47 14 0 55 8 91 18 90 25 93 25 86 -1z m554 4 c0 -4 20 -43 45 -87 52 -91 53 -85 -17 -193 -23 -34 -46 -61 -51 -59 -6 2 -31 42 -55 89 l-43 85 50 75 c28 41 51 80 51 86 0 7 5 12 10 12 6 0 10 -3 10 -8z m-777 -37 c-2 -3 -3 -50 -3 -105 l0 -100 -79 0 c-43 0 -93 3 -110 6 -31 6 -31 7 -31 73 0 36 3 83 6 103 l6 37 107 -4 c58 -3 105 -7 104 -10z m1465 -35 l52 -12 0 -88 c0 -134 1 -133 -110 -99 -104 31 -102 27 -94 146 l7 102 46 -18 c25 -10 70 -24 99 -31z m846 -12 c-35 -119 -67 -168 -156 -240 l-38 -29 14 33 c8 18 22 62 31 97 12 46 24 70 43 85 15 11 47 40 72 63 25 23 46 43 47 43 1 0 -5 -24 -13 -52z m-349 -144 c-5 -26 -12 -33 -58 -47 -30 -9 -74 -20 -100 -23 l-46 -7 2 106 2 106 61 10 c34 6 79 17 100 25 l39 13 3 -76 c2 -42 1 -90 -3 -107z m-2459 76 c40 -21 42 -25 58 -99 8 -42 18 -87 22 -100 9 -31 -6 -26 -97 35 -62 41 -69 49 -84 99 -8 30 -18 75 -22 101 l-6 47 44 -30 c24 -16 63 -40 85 -53z m2150 60 l94 0 0 -72 c0 -40 -3 -90 -6 -110 l-7 -38 -57 0 c-31 0 -78 3 -103 6 l-46 7 2 108 c2 86 5 108 15 104 8 -3 56 -5 108 -5z m-1205 -134 c15 -60 17 -81 8 -92 -6 -8 -48 -32 -92 -54 l-81 -41 -9 23 c-10 27 -37 153 -37 173 0 7 39 32 86 56 47 24 88 48 92 53 4 6 8 0 10 -14 2 -14 12 -60 23 -104z m822 -11 c19 -12 12 -53 -24 -150 -16 -44 -25 -55 -37 -50 -22 8 -110 61 -141 85 l-25 18 22 58 c11 33 26 78 32 101 l11 42 73 -47 c40 -26 81 -51 89 -57z m-1832 -110 c38 -75 38 -78 14 -55 -33 30 -102 126 -140 195 l-28 50 57 -55 c40 -38 70 -80 97 -135z m1237 113 c17 -35 40 -78 52 -96 l22 -32 -61 -60 c-90 -87 -95 -89 -127 -38 -15 23 -37 65 -50 93 l-22 51 60 49 c33 26 67 59 75 72 8 12 17 23 18 23 2 0 17 -28 33 -62z m1456 -39 c-28 -90 -29 -92 -82 -126 -53 -35 -121 -67 -127 -61 -2 2 7 35 21 73 13 39 24 80 24 91 0 17 16 30 73 57 39 19 81 42 92 50 11 8 22 14 24 12 2 -2 -9 -45 -25 -96z m-2383 32 c13 -1 20 -17 28 -65 6 -35 18 -83 26 -105 8 -23 10 -41 5 -41 -22 0 -176 53 -189 65 -12 12 -51 151 -51 185 0 14 13 12 83 -11 45 -16 89 -28 98 -28z m1245 -66 l35 -30 -45 -76 c-64 -108 -68 -111 -117 -63 -23 21 -54 56 -70 76 l-30 37 39 58 c21 32 47 73 56 91 l17 32 40 -47 c23 -27 56 -61 75 -78z m-766 67 c0 -15 9 -61 20 -101 12 -40 19 -75 18 -76 -5 -5 -121 -33 -165 -40 l-42 -7 -16 54 c-8 29 -18 77 -22 106 -5 50 -5 52 18 53 13 0 53 8 89 18 94 26 100 26 100 -7z m-216 -97 c9 -44 19 -90 22 -102 6 -23 5 -23 -87 -23 -52 0 -99 4 -105 8 -14 9 -42 94 -50 154 l-7 48 106 -3 105 -2 16 -80z m1369 61 c40 -14 84 -27 98 -30 26 -6 27 -7 18 -48 -18 -84 -50 -158 -69 -158 -20 0 -146 37 -171 51 -14 7 -12 17 12 91 16 46 29 91 29 101 0 22 -2 22 83 -7z m554 -88 c-14 -46 -32 -91 -39 -101 -13 -17 -140 -56 -185 -57 -21 0 -21 1 -8 34 8 18 21 63 30 99 l17 65 66 13 c37 6 83 18 102 24 19 7 37 11 39 9 2 -2 -8 -41 -22 -86z m287 70 c-4 -7 -26 -40 -50 -73 -44 -62 -160 -180 -132 -135 8 14 28 48 43 75 16 28 38 57 50 65 11 8 36 29 55 47 38 35 45 39 34 21z m-2673 -78 c44 -24 54 -36 93 -113 24 -48 41 -87 39 -87 -17 0 -145 94 -166 121 -24 32 -77 132 -77 144 0 4 14 -4 31 -16 17 -12 53 -34 80 -49z m2090 50 c105 0 103 4 64 -119 -22 -69 -30 -82 -51 -87 -22 -6 -184 2 -190 9 -1 1 11 40 27 87 16 47 29 93 29 104 0 12 5 16 16 12 9 -3 56 -6 105 -6z m-1132 -66 c17 -36 40 -79 52 -96 25 -35 30 -30 -84 -89 -62 -32 -82 -38 -93 -28 -8 6 -32 48 -54 92 l-41 81 85 43 c46 23 87 47 91 53 10 16 11 14 44 -56z m610 -14 c41 -28 81 -50 88 -50 23 0 15 -18 -54 -123 l-45 -67 -58 31 c-31 17 -72 43 -90 58 l-33 27 41 60 c22 32 46 71 53 87 7 15 15 27 18 27 3 0 40 -23 80 -50z m-278 -64 l64 -68 -74 -69 c-41 -38 -78 -69 -82 -69 -10 0 -105 96 -129 131 l-19 25 55 43 c30 23 64 56 76 72 17 23 24 27 33 17 6 -7 40 -44 76 -82z m1213 14 c-43 -80 -88 -124 -162 -163 -39 -21 -72 -37 -75 -37 -3 0 16 36 43 80 46 76 51 81 131 124 46 24 85 44 87 45 2 1 -9 -22 -24 -49z m-2331 9 c33 -11 67 -19 78 -19 14 0 27 -18 48 -65 17 -36 40 -79 52 -96 l22 -31 -34 7 c-19 4 -63 17 -99 29 -64 22 -66 24 -112 101 -51 84 -60 112 -30 100 9 -4 43 -16 75 -26z m600 -81 c35 -69 44 -94 35 -100 -17 -10 -141 -38 -170 -38 -18 0 -32 13 -55 53 -29 47 -63 118 -63 132 0 3 15 5 33 6 17 0 59 9 92 19 33 10 65 18 70 19 6 0 31 -41 58 -91z m-344 41 l76 -1 47 -94 47 -94 -43 0 c-24 0 -71 3 -104 6 -60 7 -63 8 -91 53 -16 25 -39 68 -51 95 l-20 49 31 -7 c17 -3 66 -6 108 -7z m1366 -22 c43 -14 81 -29 82 -34 3 -8 -52 -104 -88 -151 -15 -21 -17 -21 -75 -7 -32 9 -78 23 -101 32 l-42 15 38 57 c21 31 46 71 55 89 12 24 22 32 34 28 9 -3 53 -16 97 -29z m531 -14 c-4 -9 -27 -47 -51 -84 l-45 -67 -78 -21 c-127 -34 -129 -33 -78 47 23 37 45 75 49 84 3 10 22 20 44 23 21 4 61 13 88 20 69 18 78 18 71 -2z m-2211 -58 c28 -16 57 -38 65 -50 8 -11 30 -38 50 -59 l35 -40 -44 25 c-24 13 -80 59 -125 103 -44 43 -70 72 -56 64 14 -8 48 -28 75 -43z m935 37 c0 -5 29 -39 65 -77 49 -50 62 -71 53 -77 -7 -5 -48 -27 -91 -49 l-78 -40 -32 28 c-18 15 -52 50 -75 78 l-43 50 68 31 c37 18 77 39 88 48 22 17 45 21 45 8z m1058 -7 c5 -5 -15 -42 -62 -112 l-41 -63 -85 0 c-47 0 -95 3 -107 6 -22 6 -22 7 10 49 18 23 43 62 56 87 l24 44 101 -4 c55 -2 102 -6 104 -7z m-661 -48 c39 -26 76 -47 82 -47 6 0 11 -5 11 -11 0 -14 -120 -128 -142 -135 -19 -6 -59 13 -136 64 l-53 35 78 73 c43 40 80 72 83 71 3 -1 37 -23 77 -50z m893 -59 c-51 -46 -103 -82 -175 -123 l-50 -28 65 66 c35 37 69 67 75 67 5 1 35 14 65 30 30 15 57 29 60 29 3 0 -15 -18 -40 -41z m-2079 13 c30 -10 71 -21 92 -25 20 -4 37 -11 37 -15 0 -4 27 -38 61 -74 l60 -66 -53 15 c-117 34 -182 77 -240 157 -23 32 -25 32 43 8z m592 -13 c8 -13 38 -47 67 -77 61 -61 60 -62 -43 -85 -107 -24 -108 -24 -181 56 -36 40 -66 75 -66 78 0 3 15 7 33 8 18 1 62 11 97 21 36 10 68 19 71 20 4 0 13 -9 22 -21z m780 -32 c40 -14 86 -28 102 -31 l30 -7 -73 -69 c-48 -45 -82 -69 -97 -69 -31 0 -185 49 -185 58 1 4 24 25 51 47 28 22 60 52 71 68 11 15 22 27 25 27 2 0 37 -11 76 -24z m-960 -71 c77 -85 78 -84 -57 -75 l-78 5 -64 69 c-35 37 -64 71 -64 75 0 3 44 5 98 3 l99 -3 66 -74z m563 34 c22 -17 61 -42 88 -56 l50 -25 -24 -18 c-13 -10 -55 -33 -92 -51 l-68 -33 -43 21 c-23 12 -64 37 -91 56 l-49 36 56 25 c30 13 73 36 94 50 20 14 38 26 39 26 1 0 19 -14 40 -31z m902 -34 c-57 -54 -77 -67 -135 -84 -145 -42 -145 -42 -63 35 71 68 74 69 158 86 47 10 88 20 90 23 3 3 8 5 11 5 3 -1 -24 -30 -61 -65z m-190 17 c17 2 32 1 32 -3 0 -4 -29 -34 -65 -67 -74 -68 -105 -77 -215 -66 l-67 6 75 72 75 72 66 -9 c36 -5 81 -7 99 -5z m-1468 -86 c33 -8 83 -33 124 -60 79 -54 60 -54 -65 -1 -69 29 -181 97 -134 81 11 -4 45 -13 75 -20z m557 -7 c24 -17 63 -42 86 -55 l41 -23 -28 -11 c-16 -6 -59 -16 -96 -22 -78 -13 -95 -8 -193 55 l-62 40 89 18 c48 10 91 20 94 23 10 11 23 6 69 -25z m506 -34 c20 -4 37 -11 37 -15 0 -12 -163 -90 -185 -89 -11 0 -58 13 -105 28 l-85 28 46 20 c25 12 67 34 94 51 l48 30 56 -23 c31 -13 73 -26 94 -30z m-709 -28 c34 -23 71 -47 82 -54 17 -10 14 -12 -21 -12 -94 -1 -170 16 -230 52 -107 64 -107 62 5 59 98 -4 101 -5 164 -45z m1152 24 c-14 -21 -261 -109 -273 -97 -2 2 20 16 48 31 29 15 60 31 68 36 9 5 45 15 81 23 85 18 82 17 76 7z m-191 -25 c6 -2 -27 -22 -72 -44 -81 -41 -84 -42 -185 -42 l-103 1 74 39 c41 21 78 43 83 48 8 8 172 6 203 -2z m-510 -61 l90 -29 -70 -17 c-93 -23 -127 -23 -215 2 -85 23 -110 39 -64 40 16 0 56 9 89 19 70 21 57 22 170 -15z m-249 -41 c41 -15 74 -28 74 -31 0 -12 -229 25 -280 46 -20 8 -9 10 53 10 61 1 96 -5 153 -25z m465 -1 l64 -7 -60 -12 c-33 -7 -103 -13 -155 -13 l-95 0 65 18 c77 22 97 23 181 14z"/>
 </g>

</svg>